<?xml version="1.0" encoding="UTF-8" standalone="no"?>
<svg
   width="150"
   height="156"
   viewBox="0 0 150 156"
   fill="none"
   version="1.1"
   id="svg4"
   sodipodi:docname="logo.svg"
   inkscape:version="1.3 (0e150ed6c4, 2023-07-21)"
   xmlns:inkscape="http://www.inkscape.org/namespaces/inkscape"
   xmlns:sodipodi="http://sodipodi.sourceforge.net/DTD/sodipodi-0.dtd"
   xmlns="http://www.w3.org/2000/svg"
   xmlns:svg="http://www.w3.org/2000/svg">
  <sodipodi:namedview
     id="namedview4"
     pagecolor="#505050"
     bordercolor="#ffffff"
     borderopacity="1"
     inkscape:showpageshadow="0"
     inkscape:pageopacity="0"
     inkscape:pagecheckerboard="1"
     inkscape:deskcolor="#505050"
     inkscape:zoom="1.4142136"
     inkscape:cx="66.468037"
     inkscape:cy="71.064231"
     inkscape:window-width="1920"
     inkscape:window-height="991"
     inkscape:window-x="-9"
     inkscape:window-y="-9"
     inkscape:window-maximized="1"
     inkscape:current-layer="svg4" />
  <g
     clip-path="url(#clip0_941_131)"
     id="g4"
     transform="scale(0.34482759)">
    <path
       d="m 152.806,226.497 c 2.257,-3.309 6.769,-4.16 10.076,-1.903 3.308,2.257 4.16,6.77 1.903,10.078 -0.133,0.194 -45.68,67.6 -108.5106,93.871 -3.6989,1.537 -7.944,-0.218 -9.48,-3.916 -1.5359,-3.701 0.2182,-7.946 3.9171,-9.482 C 109.511,290.561 152.68,226.68 152.806,226.497 Z m 64.211,170.082 c -2.993,2.65 -7.569,2.372 -10.218,-0.624 -2.649,-2.994 -2.37,-7.569 0.624,-10.219 7.774,-6.887 15.406,-14.098 22.858,-21.544 7.831,-7.827 15.33,-15.773 22.468,-23.748 2.665,-2.977 7.241,-3.232 10.219,-0.567 2.977,2.665 3.232,7.241 0.567,10.22 -7.457,8.329 -15.152,16.491 -23.036,24.37 -7.535,7.528 -15.369,14.929 -23.482,22.112 z M 9.63094,293.187 c -3.7777,1.318 -7.90856,-0.679 -9.225175,-4.457 -1.31717,-3.778 0.678025,-7.911 4.456275,-9.227 C 70.0658,256.595 89.7773,224.2 109.102,192.438 c 12.326,-20.259 24.506,-40.276 47.383,-58.094 3.151,-2.461 7.701,-1.902 10.162,1.249 2.46,3.151 1.902,7.702 -1.249,10.163 -20.758,16.167 -32.27,35.086 -43.919,54.233 -20.651,33.94 -41.7144,68.56 -111.84806,93.198 z M 329.193,158.625 c -2.742,-2.916 -2.603,-7.505 0.313,-10.249 2.913,-2.743 7.503,-2.603 10.245,0.313 11.687,12.454 21.057,27.078 27.43,43.187 6.146,15.539 9.523,32.471 9.523,50.178 0,17.391 -3.277,34.061 -9.25,49.423 -6.183,15.909 -15.275,30.375 -26.617,42.75 -2.697,2.948 -7.273,3.153 -10.219,0.456 -2.948,-2.697 -3.151,-7.273 -0.453,-10.22 10.124,-11.049 18.245,-23.978 23.779,-38.209 5.312,-13.665 8.228,-28.569 8.228,-44.2 0,-15.84 -3.017,-30.969 -8.502,-44.84 -5.709,-14.432 -14.071,-27.499 -24.477,-38.589 z M 103.008,265.514 c -3.2448,2.335 -7.7699,1.598 -10.1049,-1.646 -2.3351,-3.247 -1.5982,-7.772 1.6465,-10.107 21.4994,-15.51 34.0074,-36.339 45.8444,-56.052 21.009,-34.987 40.081,-66.748 99.855,-66.748 27.121,0 51.983,9.735 71.28,25.905 19.609,16.431 33.466,39.509 38.099,65.768 0.691,3.951 -1.954,7.713 -5.905,8.404 -3.949,0.688 -7.711,-1.956 -8.401,-5.906 -4.024,-22.812 -16.064,-42.862 -33.102,-57.138 -16.759,-14.043 -38.372,-22.498 -61.971,-22.498 -51.604,0 -68.648,28.383 -87.423,59.651 -12.583,20.955 -25.88,43.099 -49.818,60.367 z m 93.818,180.646 c -3.244,2.334 -7.769,1.598 -10.105,-1.646 -2.335,-3.247 -1.598,-7.772 1.647,-10.107 14.451,-10.392 28.65,-22.106 42.271,-34.547 14.812,-13.531 28.781,-27.778 41.535,-42.022 2.665,-2.978 7.241,-3.233 10.218,-0.568 2.978,2.665 3.233,7.243 0.568,10.221 -13.208,14.753 -27.534,29.376 -42.556,43.098 -13.891,12.69 -28.517,24.739 -43.578,35.571 z m 8.466,-165.006 c 2.461,-3.167 7.024,-3.739 10.19,-1.277 3.167,2.46 3.738,7.025 1.277,10.191 -13.147,16.894 -30.476,36.414 -51.942,54.991 -16.848,14.582 -36.215,28.539 -58.061,40.128 -3.543,1.865 -7.9273,0.506 -9.7932,-3.037 -1.8651,-3.543 -0.5052,-7.929 3.037,-9.794 20.8002,-11.035 39.2622,-24.345 55.3372,-38.254 20.535,-17.774 37.233,-36.601 49.955,-52.948 z m 29.788,-44.649 c 1.881,-3.543 6.279,-4.89 9.82,-3.009 3.542,1.88 4.89,6.278 3.009,9.823 -0.014,0.026 -4.952,9.526 -14.929,24.343 -2.225,3.324 -6.724,4.213 -10.048,1.988 -3.323,-2.228 -4.213,-6.728 -1.986,-10.052 9.326,-13.85 14.12,-23.066 14.134,-23.093 z m 140.946,-87.021 c -1.632,-1.633 -3.887,-2.643 -6.381,-2.643 -2.492,0 -4.749,1.01 -6.381,2.643 -1.633,1.632 -2.643,3.89 -2.643,6.383 0,2.508 1.001,4.764 2.62,6.383 h 0.023 c 1.632,1.633 3.889,2.643 6.381,2.643 2.508,0 4.765,-1.002 6.381,-2.621 l 0.023,-0.022 c 1.619,-1.619 2.62,-3.875 2.62,-6.383 0,-2.493 -1.01,-4.751 -2.643,-6.383 z m -6.381,-8.437 c 8.185,0 14.819,6.636 14.819,14.82 0,3.16 -0.989,6.088 -2.674,8.492 5.98,10.728 10.905,22.2 14.359,34.228 3.978,13.858 6.019,28.511 5.494,43.695 -2.711,78.421 -39.886,116.392 -83.188,160.617 -13.645,13.937 -27.917,28.515 -41.66,44.994 -2.556,3.073 -7.118,3.492 -10.191,0.937 -3.071,-2.554 -3.491,-7.118 -0.935,-10.191 14.29,-17.136 28.69,-31.841 42.454,-45.903 41.177,-42.055 76.528,-78.164 79.043,-150.91 0.47,-13.542 -1.382,-26.719 -4.984,-39.265 -3.228,-11.239 -7.854,-21.932 -13.478,-31.904 -7.745,-0.485 -13.876,-6.921 -13.876,-14.79 0,-8.184 6.635,-14.82 14.817,-14.82 z m -251.744,8.99 c -1.632,-1.633 -3.889,-2.643 -6.382,-2.643 -2.492,0 -4.749,1.01 -6.382,2.643 -1.632,1.633 -2.642,3.89 -2.642,6.383 0,2.493 1.01,4.751 2.642,6.383 1.633,1.633 3.89,2.643 6.382,2.643 2.493,0 4.75,-1.01 6.382,-2.643 1.633,-1.632 2.643,-3.89 2.643,-6.383 0,-2.493 -1.01,-4.75 -2.643,-6.383 z m -6.382,-8.438 c 8.184,0 14.819,6.636 14.819,14.821 0,8.184 -6.635,14.82 -14.819,14.82 -0.611,0 -1.213,-0.038 -1.805,-0.11 -3.489,5.007 -6.8,10.078 -10.094,15.123 -15.168,23.231 -30.0129,45.968 -61.5839,63.206 -3.5111,1.911 -7.9096,0.616 -9.8215,-2.898 -1.9119,-3.511 -0.6154,-7.908 2.8959,-9.821 28.3518,-15.481 42.2059,-36.699 56.3612,-58.379 3.4289,-5.252 6.8745,-10.529 10.559,-15.798 -0.8529,-1.872 -1.3294,-3.952 -1.3294,-6.143 0,-8.185 6.6347,-14.821 14.8177,-14.821 z m 280.225,217.344 c -1.632,-1.632 -3.89,-2.642 -6.381,-2.642 -2.492,0 -4.752,1.01 -6.384,2.642 -1.63,1.633 -2.642,3.89 -2.642,6.382 0,2.494 1.012,4.751 2.642,6.383 1.632,1.633 3.892,2.645 6.384,2.645 2.491,0 4.749,-1.012 6.381,-2.645 1.632,-1.632 2.642,-3.889 2.642,-6.383 0,-2.492 -1.01,-4.749 -2.642,-6.382 z m -6.381,-8.437 c 0.214,0 0.428,0.004 0.643,0.013 h -0.026 c 9.838,-13.321 17.856,-28.099 23.691,-43.967 6.983,-18.996 10.797,-39.545 10.797,-61.01 0,-21.054 -3.65,-41.194 -10.346,-59.823 -6.949,-19.333 -17.208,-37.137 -30.103,-52.734 -2.556,-3.089 -2.123,-7.665 0.964,-10.221 3.089,-2.555 7.665,-2.123 10.218,0.966 13.901,16.814 24.992,36.093 32.546,57.107 7.284,20.264 11.253,42.053 11.253,64.705 0,23.178 -4.133,45.413 -11.705,66.007 -6.151,16.737 -14.602,32.393 -24.969,46.594 l -0.014,-0.023 c 1.19,2.132 1.867,4.59 1.867,7.205 0,8.184 -6.634,14.821 -14.816,14.821 -8.185,0 -14.82,-6.637 -14.82,-14.821 0,-8.183 6.635,-14.819 14.82,-14.819 z m -75.327,-30.843 c -1.633,-1.632 -3.89,-2.642 -6.382,-2.642 -2.492,0 -4.749,1.01 -6.381,2.642 -1.633,1.633 -2.643,3.89 -2.643,6.384 0,2.492 1.01,4.749 2.643,6.381 1.632,1.633 3.889,2.645 6.381,2.645 2.492,0 4.749,-1.012 6.382,-2.645 1.632,-1.632 2.642,-3.889 2.642,-6.381 0,-2.494 -1.01,-4.751 -2.642,-6.384 z m -6.382,-8.437 c 1.222,0 2.408,0.15 3.543,0.428 l -0.004,-0.002 c 7.108,-6.84 13.164,-14.737 17.901,-23.428 4.966,-9.108 8.511,-19.14 10.328,-29.791 0.675,-3.951 4.425,-6.607 8.374,-5.935 3.951,0.675 6.607,4.426 5.932,8.377 -2.081,12.192 -6.169,23.738 -11.917,34.277 -5.351,9.813 -12.12,18.718 -20.024,26.431 0.445,1.409 0.684,2.907 0.684,4.464 0,8.185 -6.634,14.819 -14.817,14.819 -8.182,0 -14.817,-6.634 -14.817,-14.819 0,-8.185 6.635,-14.821 14.817,-14.821 z M 197.03,224.845 c -1.632,-1.632 -3.889,-2.643 -6.381,-2.643 -2.493,0 -4.749,1.011 -6.382,2.643 -1.632,1.633 -2.643,3.89 -2.643,6.382 0,2.508 1.002,4.765 2.62,6.384 h 0.023 c 1.633,1.632 3.889,2.642 6.382,2.642 2.507,0 4.763,-1.001 6.381,-2.62 l 0.023,-0.022 c 1.618,-1.619 2.62,-3.876 2.62,-6.384 0,-2.492 -1.01,-4.749 -2.643,-6.382 z m 5.881,-1.94 c 1.613,2.374 2.556,5.24 2.556,8.322 0,8.187 -6.635,14.821 -14.818,14.821 -8.184,0 -14.818,-6.634 -14.818,-14.821 0,-7.938 6.241,-14.421 14.085,-14.801 4.469,-8.749 11.171,-16.188 19.361,-21.574 8.925,-5.868 19.57,-9.282 30.972,-9.282 15.594,0 29.713,6.323 39.934,16.545 10.221,10.221 16.543,24.343 16.543,39.939 0,20.068 -23.428,58.784 -57.43,96.594 -29.316,32.598 -66.714,65.077 -103.711,84.684 -3.542,1.867 -7.927,0.506 -9.793,-3.037 -1.865,-3.543 -0.505,-7.927 3.037,-9.795 35.356,-18.738 71.338,-50.045 99.681,-81.562 31.783,-35.343 53.681,-70.216 53.681,-86.884 0,-11.584 -4.694,-22.072 -12.284,-29.663 -7.589,-7.59 -18.077,-12.286 -29.658,-12.286 -8.536,0 -16.448,2.517 -23.024,6.84 -6.032,3.967 -10.986,9.469 -14.314,15.96 z m -5.492,-4.863 c 0.092,0.047 0.183,0.095 0.273,0.144 -0.09,-0.049 -0.181,-0.097 -0.273,-0.144 z m -51.799,68.736 c -1.632,-1.632 -3.89,-2.642 -6.382,-2.642 -2.508,0 -4.764,1.001 -6.381,2.62 v 0.022 c -1.633,1.633 -2.643,3.89 -2.643,6.384 0,2.492 1.01,4.749 2.643,6.381 v 0.023 c 1.617,1.621 3.873,2.622 6.381,2.622 2.492,0 4.75,-1.01 6.382,-2.645 1.632,-1.632 2.643,-3.889 2.643,-6.381 0,-2.494 -1.011,-4.751 -2.643,-6.384 z m -6.382,-8.437 c 8.184,0 14.818,6.636 14.818,14.821 0,8.185 -6.634,14.819 -14.818,14.819 -1.486,0 -2.92,-0.219 -4.273,-0.627 -5.953,5.221 -12.232,10.346 -18.817,15.266 -8.941,6.683 -18.5632,13.075 -28.8391,18.928 -3.4795,1.974 -7.9029,0.755 -9.8775,-2.727 -1.9749,-3.479 -0.7547,-7.904 2.7246,-9.879 9.5684,-5.448 18.6927,-11.524 27.306,-17.96 6.131,-4.583 11.946,-9.309 17.432,-14.09 -0.309,-1.192 -0.473,-2.442 -0.473,-3.73 0,-8.185 6.634,-14.821 14.817,-14.821 z M 230.981,173.39 c -3.967,0.517 -7.602,-2.279 -8.119,-6.246 -0.517,-3.966 2.279,-7.602 6.245,-8.119 1.919,-0.256 3.778,-0.444 5.567,-0.563 1.977,-0.13 3.84,-0.197 5.575,-0.197 23.133,0 44.079,9.38 59.238,24.542 15.161,15.163 24.538,36.111 24.538,59.247 0,11.333 -2.266,22.167 -6.372,32.071 -4.248,10.246 -10.486,19.479 -18.233,27.215 -2.836,2.822 -7.425,2.811 -10.245,-0.027 -2.823,-2.839 -2.809,-7.426 0.027,-10.248 6.384,-6.375 11.532,-14.008 15.054,-22.503 3.374,-8.139 5.237,-17.09 5.237,-26.508 0,-19.124 -7.752,-36.438 -20.28,-48.97 C 276.681,180.552 259.37,172.8 240.249,172.8 c -1.706,0 -3.261,0.048 -4.667,0.14 -1.63,0.108 -3.165,0.259 -4.601,0.45 z"
       fill="#ffffff"
       id="path1" />
    <path
       d="m 74.0587,24.8721 c 8.1841,0 14.8183,6.6355 14.8183,14.8203 0,8.1845 -6.6342,14.8203 -14.8183,14.8203 -8.184,0 -14.818,-6.6358 -14.818,-14.8203 0,-8.1848 6.634,-14.8203 14.818,-14.8203 z M 42.1663,207.105 c -0.7362,3.935 -4.5244,6.528 -8.4588,5.791 -3.9344,-0.736 -6.5271,-4.524 -5.7907,-8.46 4.247,-22.427 11.8934,-43.637 22.3786,-63.07 10.73,-19.886 24.4398,-37.931 40.5284,-53.5361 2.8692,-2.7904 7.4572,-2.727 10.2472,0.1427 2.79,2.869 2.726,7.4582 -0.142,10.2485 C 85.9022,112.795 73.0941,129.654 63.0684,148.236 53.2672,166.402 46.125,186.199 42.1663,207.105 Z m -1.5127,-70.782 c -1.8962,3.528 -6.2936,4.849 -9.821,2.953 -3.5266,-1.897 -4.8482,-6.296 -2.952,-9.823 4.6917,-8.706 9.9676,-17.187 15.7822,-25.397 C 49.5234,95.7812 55.789,87.9792 62.4136,80.6932 72.243,69.8843 83.0469,59.9443 94.6875,51.0081 106.222,42.1537 118.578,34.298 131.621,27.5751 c 3.558,-1.8344 7.93,-0.4362 9.764,3.1223 1.835,3.5589 0.436,7.9319 -3.121,9.7658 -12.267,6.323 -23.901,13.7217 -34.778,22.0708 -10.9124,8.3763 -21.0688,17.7276 -30.3424,27.9243 -6.4049,7.0451 -12.3109,14.3747 -17.6734,21.9447 -5.3442,7.546 -10.2975,15.534 -14.8166,23.92 z"
       fill="#bdbfc1"
       id="path2" />
    <path
       d="m 180.679,0 c 8.183,0 14.818,6.63512 14.818,14.8203 0,8.1841 -6.635,14.8197 -14.818,14.8197 -8.184,0 -14.818,-6.6356 -14.818,-14.8197 C 165.861,6.63512 172.495,0 180.679,0 Z M 89.4242,159.298 c -1.9598,3.496 -6.3832,4.742 -9.8789,2.782 -3.4955,-1.96 -4.741,-6.384 -2.7815,-9.88 11.1771,-19.958 25.8442,-37.719 43.1802,-52.4578 17.172,-14.5996 36.976,-26.2233 58.605,-34.0659 3.763,-1.3638 7.919,0.5812 9.283,4.3437 1.363,3.7627 -0.581,7.9193 -4.344,9.2831 -19.97,7.2411 -38.278,17.9928 -54.177,31.5109 -15.994,13.599 -29.5432,30.014 -39.8868,48.484 z M 117.701,83.6401 c -3.167,2.4609 -7.73,1.8894 -10.19,-1.2774 -2.461,-3.1672 -1.89,-7.7301 1.277,-10.1917 18.18,-14.1532 38.673,-25.302 60.806,-33.1229 21.889,-7.7347 45.397,-12.1978 69.87,-13.073 3.997,-0.1405 7.353,2.9864 7.492,6.9839 0.141,3.9975 -2.984,7.3533 -6.981,7.4944 -22.934,0.8203 -44.992,5.0123 -65.556,12.2783 -20.627,7.2894 -39.742,17.6916 -56.718,30.9084 z"
       fill="#0077bd"
       id="path3" />
    <path
       d="m 275.348,17.2803 c 8.184,0 14.816,6.6344 14.816,14.8196 0,8.1848 -6.632,14.8199 -14.816,14.8199 -8.185,0 -14.817,-6.6351 -14.817,-14.8199 0,-8.1852 6.632,-14.8196 14.817,-14.8196 z M 138.222,136.341 c -2.883,2.776 -7.472,2.687 -10.247,-0.198 -2.774,-2.884 -2.685,-7.473 0.199,-10.248 14.782,-14.272 32.297,-25.752 51.686,-33.5829 18.682,-7.5459 39.068,-11.7003 60.391,-11.7003 21.556,0 42.139,4.2348 60.957,11.9192 19.532,7.975 37.164,19.682 52.016,34.237 2.852,2.806 2.89,7.395 0.084,10.248 -2.804,2.854 -7.394,2.891 -10.246,0.086 -13.483,-13.213 -29.517,-23.852 -47.305,-31.115 -17.115,-6.9883 -35.856,-10.8403 -55.506,-10.8403 -19.476,0 -38.038,3.7716 -54.998,10.6213 -17.624,7.119 -33.561,17.57 -47.031,30.573 z m 67.664,-63.4956 c -3.919,0.8465 -7.783,-1.6449 -8.629,-5.5643 -0.846,-3.9193 1.645,-7.7837 5.563,-8.63 6.579,-1.4347 13.354,-2.5354 20.302,-3.2807 6.872,-0.7369 13.753,-1.1158 20.615,-1.1158 13.579,0 26.88,1.4341 39.754,4.1576 13.187,2.7903 25.888,6.9468 37.94,12.3118 3.652,1.6299 5.291,5.9135 3.661,9.5668 -1.63,3.6528 -5.912,5.2922 -9.564,3.6621 -11.096,-4.9377 -22.806,-8.7681 -34.989,-11.3462 -11.821,-2.501 -24.13,-3.8167 -36.802,-3.8167 -6.548,0 -12.913,0.3394 -19.082,1.0015 -6.296,0.6753 -12.561,1.7006 -18.769,3.0539 z"
       fill="#ed3237"
       id="path4" />
  </g>
  <defs
     id="defs4">
    <clipPath
       id="clip0_941_131">
      <rect
         width="435"
         height="450.50299"
         fill="#ffffff"
         id="rect4"
         x="0"
         y="0" />
    </clipPath>
  </defs>
</svg>
