<?xml version="1.0" encoding="UTF-8" standalone="no"?>
<svg
   width="147"
   height="79"
   viewBox="0 0 147 79"
   fill="none"
   version="1.1"
   id="svg26"
   sodipodi:docname="smartcity.svg"
   inkscape:version="1.3 (0e150ed6c4, 2023-07-21)"
   xmlns:inkscape="http://www.inkscape.org/namespaces/inkscape"
   xmlns:sodipodi="http://sodipodi.sourceforge.net/DTD/sodipodi-0.dtd"
   xmlns="http://www.w3.org/2000/svg"
   xmlns:svg="http://www.w3.org/2000/svg">
  <defs
     id="defs26" />
  <sodipodi:namedview
     id="namedview26"
     pagecolor="#505050"
     bordercolor="#ffffff"
     borderopacity="1"
     inkscape:showpageshadow="0"
     inkscape:pageopacity="0"
     inkscape:pagecheckerboard="1"
     inkscape:deskcolor="#505050"
     showguides="false"
     inkscape:zoom="2.6928747"
     inkscape:cx="191.24544"
     inkscape:cy="35.092609"
     inkscape:window-width="1920"
     inkscape:window-height="991"
     inkscape:window-x="-9"
     inkscape:window-y="-9"
     inkscape:window-maximized="1"
     inkscape:current-layer="svg26" />
  <path
     d="M 78.978467,60.90428 H 71.46431 v 14.835322 h -2.08633 v -16.72543 h 9.600487 z"
     fill="#ffffff"
     id="path1"
     style="stroke-width:0.358722" />
  <path
     d="m 81.64485,68.297907 c 0,4.145754 1.40655,5.74458 3.975361,5.74458 2.570246,0 3.976438,-1.598826 3.976438,-5.74458 v -1.841681 c 0,-4.145396 -1.406192,-5.745656 -3.976438,-5.745656 -2.568811,0 -3.975361,1.60026 -3.975361,5.745656 z m 3.975361,7.636122 c -3.707754,0 -6.059179,-2.230894 -6.059179,-7.636122 v -1.841681 c 0,-5.406305 2.351425,-7.63684 6.059179,-7.63684 3.710266,0 6.060615,2.230535 6.060615,7.63684 v 1.841681 c 0,5.405228 -2.350349,7.636122 -6.060615,7.636122 z"
     fill="#ffffff"
     id="path2"
     style="stroke-width:0.358722" />
  <path
     d="m 100.28909,67.473563 c 2.83534,0 3.99903,-1.212482 3.99903,-3.272983 0,-2.083818 -1.16369,-3.2963 -3.99903,-3.2963 h -3.247518 v 6.569283 z m -3.247518,1.891184 v 6.373779 H 94.954885 V 59.014172 h 5.334205 c 3.85483,0 6.08429,1.938536 6.08429,5.186408 0,3.224196 -2.20722,5.164167 -6.08429,5.164167 z"
     fill="#ffffff"
     id="path3"
     style="stroke-width:0.358722" />
  <path
     d="m 110.44667,68.297907 c 0,4.145754 1.40619,5.74458 3.97536,5.74458 2.56989,0 3.97644,-1.598826 3.97644,-5.74458 v -1.841681 c 0,-4.145396 -1.40655,-5.745656 -3.97644,-5.745656 -2.56917,0 -3.97536,1.60026 -3.97536,5.745656 z m 3.97536,7.636122 c -3.70919,0 -6.06061,-2.230894 -6.06061,-7.636122 v -1.841681 c 0,-5.406305 2.35142,-7.63684 6.06061,-7.63684 3.70919,0 6.05918,2.230535 6.05918,7.63684 v 1.841681 c 0,5.405228 -2.34999,7.636122 -6.05918,7.636122 z"
     fill="#ffffff"
     id="path4"
     style="stroke-width:0.358722" />
  <path
     d="M 125.33149,73.848418 H 133.185 V 60.90428 h -5.86511 v 1.938536 c 0,4.340899 -0.38814,7.249061 -1.01841,9.114417 -0.2425,0.752241 -0.5571,1.382516 -0.96999,1.891185 z m -3.39315,5.042201 v -5.042201 h 0.72713 c 0.75224,-0.437642 1.40655,-1.720791 1.76958,-2.884846 0.50866,-1.623936 0.80066,-4.387891 0.80066,-8.120756 v -3.828644 h 10.03455 v 14.834246 h 2.08417 v 5.042201 h -2.08417 v -3.151017 h -11.24667 v 3.151017 z"
     fill="#ffffff"
     id="path5"
     style="stroke-width:0.358722" />
  <path
     d="m 79.675464,30.880797 -5.666378,13.843311 c -0.940211,2.292595 -1.928491,2.99031 -4.774953,2.99031 v -1.90374 c 1.662678,0 2.314118,-0.168958 2.989233,-1.834147 l 0.07354,-0.192634 -5.716241,-12.9031 h 2.266767 l 4.509857,10.298058 4.148266,-10.298058 z"
     fill="#ffffff"
     id="path6"
     style="stroke-width:0.358722" />
  <path
     d="m 89.076143,41.252034 4.969022,-10.371488 h 2.050098 V 47.522501 H 94.020054 V 35.319592 l -4.051052,8.730118 h -1.856388 l -3.980383,-8.657979 v 12.13077 H 82.057022 V 30.880546 h 2.026781 z"
     fill="#ffffff"
     id="path7"
     style="stroke-width:0.358722" />
  <path
     d="m 102.26385,37.972236 h 7.13714 v -7.09126 h 2.07414 v 16.642243 h -2.07414 v -7.669484 h -7.13714 v 7.669484 h -2.07556 V 30.880976 h 2.07556 z"
     fill="#ffffff"
     id="path8"
     style="stroke-width:0.358722" />
  <path
     d="m 130.18465,47.522143 h -2.0727 V 30.88008 h 2.0727 z m -12.54022,-8.175642 v 6.295578 h 2.82279 c 2.50783,0 3.66542,-1.327991 3.66542,-3.135951 0,-1.809037 -1.15759,-3.159627 -3.66542,-3.159627 z m 0,-8.465202 v 6.584062 h 2.82279 c 4.26879,0 5.73848,2.628359 5.73848,5.040767 0,2.412408 -1.46969,5.016015 -5.73848,5.016015 h -4.89656 V 30.881299 Z"
     fill="#ffffff"
     id="path9"
     style="stroke-width:0.358722" />
  <path
     d="m 144.60134,26.322333 c 0,2.412264 -1.54322,3.425655 -4.19669,3.425655 -2.65239,0 -4.22037,-1.013391 -4.22037,-3.425655 h 1.97835 c 0,0.964891 0.40931,1.929818 2.24202,1.929818 1.83415,0 2.24417,-0.964927 2.24417,-1.929818 z m -8.24774,4.558428 v 12.516433 l 7.91054,-12.516433 H 146 V 47.52286 h -2.07413 V 35.125846 l -7.86104,12.397014 h -1.78537 V 30.880761 Z"
     fill="#ffffff"
     id="path10"
     style="stroke-width:0.358722" />
  <path
     d="m 79.675464,30.880797 -5.666378,13.843311 c -0.940211,2.292595 -1.928491,2.99031 -4.774953,2.99031 v -1.90374 c 1.662678,0 2.314118,-0.168958 2.989233,-1.834147 l 0.07354,-0.192634 -5.716241,-12.9031 h 2.266767 l 4.509857,10.298058 4.148266,-10.298058 z"
     fill="#ffffff"
     id="path11"
     style="stroke-width:0.358722" />
  <path
     d="m 89.076143,41.252034 4.969022,-10.371488 h 2.050098 V 47.522501 H 94.020054 V 35.319592 l -4.051052,8.730118 h -1.856388 l -3.980383,-8.657979 v 12.13077 H 82.057022 V 30.880546 h 2.026781 z"
     fill="#ffffff"
     id="path12"
     style="stroke-width:0.358722" />
  <path
     d="m 102.26385,37.972236 h 7.13714 v -7.09126 h 2.07414 v 16.642243 h -2.07414 v -7.669484 h -7.13714 v 7.669484 h -2.07556 V 30.880976 h 2.07556 z"
     fill="#ffffff"
     id="path13"
     style="stroke-width:0.358722" />
  <path
     d="m 130.18465,47.522143 h -2.0727 V 30.88008 h 2.0727 z m -12.54022,-8.175642 v 6.295578 h 2.82279 c 2.50783,0 3.66542,-1.327991 3.66542,-3.135951 0,-1.809037 -1.15759,-3.159627 -3.66542,-3.159627 z m 0,-8.465202 v 6.584062 h 2.82279 c 4.26879,0 5.73848,2.628359 5.73848,5.040767 0,2.412408 -1.46969,5.016015 -5.73848,5.016015 h -4.89656 V 30.881299 Z"
     fill="#ffffff"
     id="path14"
     style="stroke-width:0.358722" />
  <path
     d="m 144.60134,26.322333 c 0,2.412264 -1.54322,3.425655 -4.19669,3.425655 -2.65239,0 -4.22037,-1.013391 -4.22037,-3.425655 h 1.97835 c 0,0.964891 0.40931,1.929818 2.24202,1.929818 1.83415,0 2.24417,-0.964927 2.24417,-1.929818 z m -8.24774,4.558428 v 12.516433 l 7.91054,-12.516433 H 146 V 47.52286 h -2.07413 V 35.125846 l -7.86104,12.397014 h -1.78537 V 30.880761 Z"
     fill="#ffffff"
     id="path15"
     style="stroke-width:0.358722" />
  <path
     d="M 78.978467,60.90428 H 71.46431 v 14.835322 h -2.08633 v -16.72543 h 9.600487 z"
     fill="#ffffff"
     id="path16"
     style="stroke-width:0.358722" />
  <path
     d="m 81.64485,68.297907 c 0,4.145754 1.40655,5.74458 3.975361,5.74458 2.570246,0 3.976438,-1.598826 3.976438,-5.74458 v -1.841681 c 0,-4.145396 -1.406192,-5.745656 -3.976438,-5.745656 -2.568811,0 -3.975361,1.60026 -3.975361,5.745656 z m 3.975361,7.636122 c -3.707754,0 -6.059179,-2.230894 -6.059179,-7.636122 v -1.841681 c 0,-5.406305 2.351425,-7.63684 6.059179,-7.63684 3.710266,0 6.060615,2.230535 6.060615,7.63684 v 1.841681 c 0,5.405228 -2.350349,7.636122 -6.060615,7.636122 z"
     fill="#ffffff"
     id="path17"
     style="stroke-width:0.358722" />
  <path
     d="m 100.28909,67.473563 c 2.83534,0 3.99903,-1.212482 3.99903,-3.272983 0,-2.083818 -1.16369,-3.2963 -3.99903,-3.2963 h -3.247518 v 6.569283 z m -3.247518,1.891184 v 6.373779 H 94.954885 V 59.014172 h 5.334205 c 3.85483,0 6.08429,1.938536 6.08429,5.186408 0,3.224196 -2.20722,5.164167 -6.08429,5.164167 z"
     fill="#ffffff"
     id="path18"
     style="stroke-width:0.358722" />
  <path
     d="m 110.44667,68.297907 c 0,4.145754 1.40619,5.74458 3.97536,5.74458 2.56989,0 3.97644,-1.598826 3.97644,-5.74458 v -1.841681 c 0,-4.145396 -1.40655,-5.745656 -3.97644,-5.745656 -2.56917,0 -3.97536,1.60026 -3.97536,5.745656 z m 3.97536,7.636122 c -3.70919,0 -6.06061,-2.230894 -6.06061,-7.636122 v -1.841681 c 0,-5.406305 2.35142,-7.63684 6.06061,-7.63684 3.70919,0 6.05918,2.230535 6.05918,7.63684 v 1.841681 c 0,5.405228 -2.34999,7.636122 -6.05918,7.636122 z"
     fill="#ffffff"
     id="path19"
     style="stroke-width:0.358722" />
  <path
     d="M 125.33149,73.848418 H 133.185 V 60.90428 h -5.86511 v 1.938536 c 0,4.340899 -0.38814,7.249061 -1.01841,9.114417 -0.2425,0.752241 -0.5571,1.382516 -0.96999,1.891185 z m -3.39315,5.042201 v -5.042201 h 0.72713 c 0.75224,-0.437642 1.40655,-1.720791 1.76958,-2.884846 0.50866,-1.623936 0.80066,-4.387891 0.80066,-8.120756 v -3.828644 h 10.03455 v 14.834246 h 2.08417 v 5.042201 h -2.08417 v -3.151017 h -11.24667 v 3.151017 z"
     fill="#ffffff"
     id="path20"
     style="stroke-width:0.358722" />
  <path
     fill-rule="evenodd"
     clip-rule="evenodd"
     d="M 1.7515731e-4,59.064752 H 5.8179386 V 37.6397 H 1.7515731e-4 Z"
     fill="#ffffff"
     id="path21"
     style="stroke-width:0.358722" />
  <path
     fill-rule="evenodd"
     clip-rule="evenodd"
     d="M 34.893534,69.03544 H 40.7114 V 47.607518 h -5.817866 z"
     fill="#ffffff"
     id="path22"
     style="stroke-width:0.358722" />
  <path
     fill-rule="evenodd"
     clip-rule="evenodd"
     d="M 26.174105,0.306046 C 11.718347,0.306046 0,12.025166 0,26.480171 v 4.374834 h 5.8177592 v -4.375624 c 0,-11.243363 9.1137718,-20.3571348 20.3563458,-20.3571348 11.243507,0 20.357924,9.1145258 20.357924,20.3579248 v 21.095421 h 5.816325 V 26.480171 c 0,-14.455005 -11.718383,-26.174125 -26.174249,-26.174125 z"
     fill="#ffffff"
     id="path23"
     style="stroke-width:0.358722" />
  <path
     fill-rule="evenodd"
     clip-rule="evenodd"
     d="m 23.26501,75.844708 h 5.817795 V 69.015351 H 23.26501 Z"
     fill="#ffffff"
     id="path24"
     style="stroke-width:0.358722" />
  <path
     fill-rule="evenodd"
     clip-rule="evenodd"
     d="m 23.26501,62.185995 h 5.817795 V 40.869278 H 23.26501 Z"
     fill="#ffffff"
     id="path25"
     style="stroke-width:0.358722" />
  <path
     fill-rule="evenodd"
     clip-rule="evenodd"
     d="m 17.454605,31.896053 c 0,-4.817031 3.902218,-8.72237 8.720038,-8.72237 4.816996,0 8.722334,3.905339 8.722334,8.72237 v 8.929461 h 5.814782 v -8.929461 c 0,-8.028637 -6.508479,-14.537008 -14.537116,-14.537008 -8.029426,0 -14.537797,6.508371 -14.537797,14.537008 v 3.47645 33.662937 h 5.817759 V 35.372503 Z"
     fill="#ffffff"
     id="path26"
     style="stroke-width:0.358722" />
</svg>
